<svg width="10" height="10" viewBox="0 0 10 10" fill="none" xmlns="http://www.w3.org/2000/svg">
<path d="M9.45709 0.799988H0.542808C0.353165 0.799988 0.199951 0.970613 0.199951 1.18181V8.81817C0.199951 9.02936 0.353165 9.19999 0.542808 9.19999H9.45709C9.64674 9.19999 9.79995 9.02936 9.79995 8.81817V1.18181C9.79995 0.970613 9.64674 0.799988 9.45709 0.799988ZM0.97138 1.65908H9.02852V3.0909H0.97138V1.65908ZM9.02852 8.3409H0.97138V4.1409H9.02852V8.3409ZM6.48924 7.57726H8.25709C8.30424 7.57726 8.34281 7.53431 8.34281 7.48181V6.62271C8.34281 6.57021 8.30424 6.52726 8.25709 6.52726H6.48924C6.44209 6.52726 6.40352 6.57021 6.40352 6.62271V7.48181C6.40352 7.53431 6.44209 7.57726 6.48924 7.57726Z" fill="#131313"/>
</svg>
