<svg width="10" height="10" viewBox="0 0 10 10" fill="none" xmlns="http://www.w3.org/2000/svg">
<path d="M9.41595 1.06395H7.39995V0.295951C7.39995 0.243151 7.35675 0.199951 7.30395 0.199951H6.63195C6.57915 0.199951 6.53595 0.243151 6.53595 0.295951V1.06395H3.46395V0.295951C3.46395 0.243151 3.42075 0.199951 3.36795 0.199951H2.69595C2.64315 0.199951 2.59995 0.243151 2.59995 0.295951V1.06395H0.583951C0.371551 1.06395 0.199951 1.23555 0.199951 1.44795V9.41595C0.199951 9.62835 0.371551 9.79995 0.583951 9.79995H9.41595C9.62835 9.79995 9.79995 9.62835 9.79995 9.41595V1.44795C9.79995 1.23555 9.62835 1.06395 9.41595 1.06395ZM8.93595 8.93595H1.06395V4.37595H8.93595V8.93595ZM1.06395 3.55995V1.92795H2.59995V2.50395C2.59995 2.55675 2.64315 2.59995 2.69595 2.59995H3.36795C3.42075 2.59995 3.46395 2.55675 3.46395 2.50395V1.92795H6.53595V2.50395C6.53595 2.55675 6.57915 2.59995 6.63195 2.59995H7.30395C7.35675 2.59995 7.39995 2.55675 7.39995 2.50395V1.92795H8.93595V3.55995H1.06395Z" fill="#131313"/>
</svg>
