<svg width="10" height="10" viewBox="0 0 10 10" fill="none" xmlns="http://www.w3.org/2000/svg">
<path d="M9.41595 1.06401H7.39995V0.296012C7.39995 0.243212 7.35675 0.200012 7.30395 0.200012H6.63195C6.57915 0.200012 6.53595 0.243212 6.53595 0.296012V1.06401H3.46395V0.296012C3.46395 0.243212 3.42075 0.200012 3.36795 0.200012H2.69595C2.64315 0.200012 2.59995 0.243212 2.59995 0.296012V1.06401H0.583951C0.371551 1.06401 0.199951 1.23561 0.199951 1.44801V9.41601C0.199951 9.62841 0.371551 9.80001 0.583951 9.80001H9.41595C9.62835 9.80001 9.79995 9.62841 9.79995 9.41601V1.44801C9.79995 1.23561 9.62835 1.06401 9.41595 1.06401ZM8.93595 8.93601H1.06395V4.37601H8.93595V8.93601ZM1.06395 3.56001V1.92801H2.59995V2.50401C2.59995 2.55681 2.64315 2.60001 2.69595 2.60001H3.36795C3.42075 2.60001 3.46395 2.55681 3.46395 2.50401V1.92801H6.53595V2.50401C6.53595 2.55681 6.57915 2.60001 6.63195 2.60001H7.30395C7.35675 2.60001 7.39995 2.55681 7.39995 2.50401V1.92801H8.93595V3.56001H1.06395Z" fill="#131313"/>
</svg>
